<svg xmlns="http://www.w3.org/2000/svg" width="2284" height="932" viewBox="0 0 2284 932" font-family="Helvetica,Arial,sans-serif">
<rect width="2284" height="932" fill="#ffffff"/>
<defs>
<marker id="a_depends_on" markerWidth="7" markerHeight="7" refX="6" refY="3" orient="auto"><path d="M0,0 L6,3 L0,6 Z" fill="#2563EB"/></marker>
<marker id="a_enables" markerWidth="7" markerHeight="7" refX="6" refY="3" orient="auto"><path d="M0,0 L6,3 L0,6 Z" fill="#D97706"/></marker>
<marker id="a_mitigates" markerWidth="7" markerHeight="7" refX="6" refY="3" orient="auto"><path d="M0,0 L6,3 L0,6 Z" fill="#0D9488"/></marker>
<marker id="a_supersedes" markerWidth="7" markerHeight="7" refX="6" refY="3" orient="auto"><path d="M0,0 L6,3 L0,6 Z" fill="#DC2626"/></marker>
<marker id="a_caused_by" markerWidth="7" markerHeight="7" refX="6" refY="3" orient="auto"><path d="M0,0 L6,3 L0,6 Z" fill="#9333EA"/></marker>
<marker id="a_introduced_in" markerWidth="7" markerHeight="7" refX="6" refY="3" orient="auto"><path d="M0,0 L6,3 L0,6 Z" fill="#64748B"/></marker>
<marker id="a_relates_to" markerWidth="7" markerHeight="7" refX="6" refY="3" orient="auto"><path d="M0,0 L6,3 L0,6 Z" fill="#C7CDD6"/></marker>
</defs>
<text x="44" y="46" fill="#111827" font-size="24" font-weight="700">The Living Memory Graph</text>
<text x="44" y="72" fill="#6B7280" font-size="14">The book’s knowledge as a typed graph — 30 nodes, 43 relationships, served over MCP</text>
<text x="142.0" y="126" fill="#9CA3AF" font-size="13" font-weight="600" text-anchor="middle">CHAPTER 1</text>
<text x="392.0" y="126" fill="#9CA3AF" font-size="13" font-weight="600" text-anchor="middle">CHAPTER 2</text>
<text x="642.0" y="126" fill="#9CA3AF" font-size="13" font-weight="600" text-anchor="middle">CHAPTER 3</text>
<text x="892.0" y="126" fill="#9CA3AF" font-size="13" font-weight="600" text-anchor="middle">CHAPTER 4</text>
<text x="1142.0" y="126" fill="#9CA3AF" font-size="13" font-weight="600" text-anchor="middle">CHAPTER 5</text>
<text x="1392.0" y="126" fill="#9CA3AF" font-size="13" font-weight="600" text-anchor="middle">CHAPTER 6</text>
<text x="1642.0" y="126" fill="#9CA3AF" font-size="13" font-weight="600" text-anchor="middle">CHAPTER 7</text>
<text x="1892.0" y="126" fill="#9CA3AF" font-size="13" font-weight="600" text-anchor="middle">CHAPTER 8</text>
<text x="2142.0" y="126" fill="#9CA3AF" font-size="13" font-weight="600" text-anchor="middle">CHAPTER 9</text>
<path d="M240,180 C162,180 122,372 44,372" fill="none" stroke="#C7CDD6" stroke-width="1.3" stroke-opacity="0.4" stroke-dasharray="4 4" marker-end="url(#a_relates_to)"/>
<path d="M240,372 C162,372 122,276 44,276" fill="none" stroke="#2563EB" stroke-width="1.8" stroke-opacity="0.8" marker-end="url(#a_depends_on)"/>
<path d="M294,180 C254,180 280,180 240,180" fill="none" stroke="#0D9488" stroke-width="1.8" stroke-opacity="0.8" marker-end="url(#a_mitigates)"/>
<path d="M294,180 C254,180 280,372 240,372" fill="none" stroke="#D97706" stroke-width="1.8" stroke-opacity="0.8" marker-end="url(#a_enables)"/>
<path d="M490,276 C412,276 372,180 294,180" fill="none" stroke="#C7CDD6" stroke-width="1.3" stroke-opacity="0.4" stroke-dasharray="4 4" marker-end="url(#a_relates_to)"/>
<path d="M740,180 C662,180 622,276 544,276" fill="none" stroke="#D97706" stroke-width="1.8" stroke-opacity="0.8" marker-end="url(#a_enables)"/>
<path d="M740,180 C662,180 622,468 544,468" fill="none" stroke="#C7CDD6" stroke-width="1.3" stroke-opacity="0.4" stroke-dasharray="4 4" marker-end="url(#a_relates_to)"/>
<path d="M740,276 C780,276 754,276 794,276" fill="none" stroke="#2563EB" stroke-width="1.8" stroke-opacity="0.8" marker-end="url(#a_depends_on)"/>
<path d="M740,372 C662,372 622,276 544,276" fill="none" stroke="#C7CDD6" stroke-width="1.3" stroke-opacity="0.4" stroke-dasharray="4 4" marker-end="url(#a_relates_to)"/>
<path d="M990,180 C912,180 872,276 794,276" fill="none" stroke="#D97706" stroke-width="1.8" stroke-opacity="0.8" marker-end="url(#a_enables)"/>
<path d="M990,276 C1412,276 1622,180 2044,180" fill="none" stroke="#DC2626" stroke-width="1.8" stroke-opacity="0.8" marker-end="url(#a_supersedes)"/>
<path d="M1240,180 C1162,180 1122,276 1044,276" fill="none" stroke="#2563EB" stroke-width="1.8" stroke-opacity="0.8" marker-end="url(#a_depends_on)"/>
<path d="M1044,180 C922,180 862,372 740,372" fill="none" stroke="#2563EB" stroke-width="1.8" stroke-opacity="0.8" marker-end="url(#a_depends_on)"/>
<path d="M1044,180 C1004,180 1030,276 990,276" fill="none" stroke="#2563EB" stroke-width="1.8" stroke-opacity="0.8" marker-end="url(#a_depends_on)"/>
<path d="M1240,276 C1562,276 1722,564 2044,564" fill="none" stroke="#D97706" stroke-width="1.8" stroke-opacity="0.8" marker-end="url(#a_enables)"/>
<path d="M2044,372 C1822,372 1712,276 1490,276" fill="none" stroke="#2563EB" stroke-width="1.8" stroke-opacity="0.8" marker-end="url(#a_depends_on)"/>
<path d="M2044,372 C1522,372 1262,372 740,372" fill="none" stroke="#2563EB" stroke-width="1.8" stroke-opacity="0.8" marker-end="url(#a_depends_on)"/>
<path d="M2044,372 C2004,372 2030,468 1990,468" fill="none" stroke="#2563EB" stroke-width="1.8" stroke-opacity="0.8" marker-end="url(#a_depends_on)"/>
<path d="M1490,372 C1712,372 1822,372 2044,372" fill="none" stroke="#C7CDD6" stroke-width="1.3" stroke-opacity="0.4" stroke-dasharray="4 4" marker-end="url(#a_relates_to)"/>
<path d="M1490,276 C1712,276 1822,372 2044,372" fill="none" stroke="#64748B" stroke-width="1.8" stroke-opacity="0.8" marker-end="url(#a_introduced_in)"/>
<path d="M1490,180 C1530,180 1504,180 1544,180" fill="none" stroke="#C7CDD6" stroke-width="1.3" stroke-opacity="0.4" stroke-dasharray="4 4" marker-end="url(#a_relates_to)"/>
<path d="M1740,180 C1780,180 1754,276 1794,276" fill="none" stroke="#2563EB" stroke-width="1.8" stroke-opacity="0.8" marker-end="url(#a_depends_on)"/>
<path d="M1740,180 C1862,180 1922,372 2044,372" fill="none" stroke="#C7CDD6" stroke-width="1.3" stroke-opacity="0.4" stroke-dasharray="4 4" marker-end="url(#a_relates_to)"/>
<path d="M1990,468 C1912,468 1872,276 1794,276" fill="none" stroke="#C7CDD6" stroke-width="1.3" stroke-opacity="0.4" stroke-dasharray="4 4" marker-end="url(#a_relates_to)"/>
<path d="M1990,564 C1912,564 1872,468 1794,468" fill="none" stroke="#C7CDD6" stroke-width="1.3" stroke-opacity="0.4" stroke-dasharray="4 4" marker-end="url(#a_relates_to)"/>
<path d="M1990,468 C1912,468 1872,372 1794,372" fill="none" stroke="#0D9488" stroke-width="1.8" stroke-opacity="0.8" marker-end="url(#a_mitigates)"/>
<path d="M1990,564 C1912,564 1872,372 1794,372" fill="none" stroke="#0D9488" stroke-width="1.8" stroke-opacity="0.8" marker-end="url(#a_mitigates)"/>
<path d="M1990,660 C1912,660 1872,564 1794,564" fill="none" stroke="#2563EB" stroke-width="1.8" stroke-opacity="0.8" marker-end="url(#a_depends_on)"/>
<path d="M1794,372 C1754,372 1780,180 1740,180" fill="none" stroke="#C7CDD6" stroke-width="1.3" stroke-opacity="0.4" stroke-dasharray="4 4" marker-end="url(#a_relates_to)"/>
<path d="M1794,180 C1372,180 1162,276 740,276" fill="none" stroke="#C7CDD6" stroke-width="1.3" stroke-opacity="0.4" stroke-dasharray="4 4" marker-end="url(#a_relates_to)"/>
<path d="M1990,180 C2030,180 2004,276 2044,276" fill="none" stroke="#C7CDD6" stroke-width="1.3" stroke-opacity="0.4" stroke-dasharray="4 4" marker-end="url(#a_relates_to)"/>
<path d="M2044,564 C1722,564 1562,276 1240,276" fill="none" stroke="#2563EB" stroke-width="1.8" stroke-opacity="0.8" marker-end="url(#a_depends_on)"/>
<path d="M2240,564 C2162,564 2122,756 2044,756" fill="none" stroke="#D97706" stroke-width="1.8" stroke-opacity="0.8" marker-end="url(#a_enables)"/>
<path d="M2044,660 C2004,660 2030,660 1990,660" fill="none" stroke="#DC2626" stroke-width="1.8" stroke-opacity="0.8" marker-end="url(#a_supersedes)"/>
<path d="M2044,660 C2004,660 2030,468 1990,468" fill="none" stroke="#C7CDD6" stroke-width="1.3" stroke-opacity="0.4" stroke-dasharray="4 4" marker-end="url(#a_relates_to)"/>
<path d="M2044,180 C1622,180 1412,276 990,276" fill="none" stroke="#2563EB" stroke-width="1.8" stroke-opacity="0.8" marker-end="url(#a_depends_on)"/>
<path d="M2240,180 C2162,180 2122,468 2044,468" fill="none" stroke="#D97706" stroke-width="1.8" stroke-opacity="0.8" marker-end="url(#a_enables)"/>
<path d="M2044,468 C1522,468 1262,372 740,372" fill="none" stroke="#2563EB" stroke-width="1.8" stroke-opacity="0.8" marker-end="url(#a_depends_on)"/>
<path d="M2240,468 C2162,468 2122,180 2044,180" fill="none" stroke="#64748B" stroke-width="1.8" stroke-opacity="0.8" marker-end="url(#a_introduced_in)"/>
<path d="M2240,276 C2162,276 2122,180 2044,180" fill="none" stroke="#2563EB" stroke-width="1.8" stroke-opacity="0.8" marker-end="url(#a_depends_on)"/>
<path d="M2044,276 C2004,276 2030,180 1990,180" fill="none" stroke="#9333EA" stroke-width="1.8" stroke-opacity="0.8" marker-end="url(#a_caused_by)"/>
<path d="M2240,756 C2162,756 2122,564 2044,564" fill="none" stroke="#2563EB" stroke-width="1.8" stroke-opacity="0.8" marker-end="url(#a_depends_on)"/>
<path d="M2240,756 C2162,756 2122,660 2044,660" fill="none" stroke="#C7CDD6" stroke-width="1.3" stroke-opacity="0.4" stroke-dasharray="4 4" marker-end="url(#a_relates_to)"/>
<rect x="44" y="150" width="196" height="60" rx="8" fill="#ffffff" stroke="#E5E7EB" stroke-width="1.2"/>
<rect x="44" y="150" width="5" height="60" rx="2.5" fill="#3B6EA5"/>
<text x="58" y="176" fill="#111827" font-size="12.5" font-weight="600">Developer cognitive load</text>
<text x="58" y="201" fill="#3B6EA5" font-size="10" font-weight="700" letter-spacing="0.5">CONCEPT</text>
<rect x="44" y="246" width="196" height="60" rx="8" fill="#ffffff" stroke="#E5E7EB" stroke-width="1.2"/>
<rect x="44" y="246" width="5" height="60" rx="2.5" fill="#7F6A4E"/>
<text x="58" y="272" fill="#111827" font-size="12.5" font-weight="600">DORA metrics / SLO / SLI</text>
<text x="58" y="297" fill="#7F6A4E" font-size="10" font-weight="700" letter-spacing="0.5">METRIC</text>
<rect x="44" y="342" width="196" height="60" rx="8" fill="#ffffff" stroke="#E5E7EB" stroke-width="1.2"/>
<rect x="44" y="342" width="5" height="60" rx="2.5" fill="#3B6EA5"/>
<text x="58" y="368" fill="#111827" font-size="12.5" font-weight="600">Platform as a Product</text>
<text x="58" y="393" fill="#3B6EA5" font-size="10" font-weight="700" letter-spacing="0.5">CONCEPT</text>
<rect x="294" y="150" width="196" height="60" rx="8" fill="#ffffff" stroke="#E5E7EB" stroke-width="1.2"/>
<rect x="294" y="150" width="5" height="60" rx="2.5" fill="#3B6EA5"/>
<text x="308" y="176" fill="#111827" font-size="12.5" font-weight="600">AIOps</text>
<text x="308" y="201" fill="#3B6EA5" font-size="10" font-weight="700" letter-spacing="0.5">CONCEPT</text>
<rect x="294" y="246" width="196" height="60" rx="8" fill="#ffffff" stroke="#E5E7EB" stroke-width="1.2"/>
<rect x="294" y="246" width="5" height="60" rx="2.5" fill="#E08214"/>
<text x="308" y="266" fill="#111827" font-size="12.5" font-weight="600">Build vs. buy AI</text>
<text x="308" y="281" fill="#111827" font-size="12.5" font-weight="600">platform capability</text>
<text x="308" y="297" fill="#E08214" font-size="10" font-weight="700" letter-spacing="0.5">DECISION</text>
<rect x="544" y="150" width="196" height="60" rx="8" fill="#ffffff" stroke="#E5E7EB" stroke-width="1.2"/>
<rect x="544" y="150" width="5" height="60" rx="2.5" fill="#3B6EA5"/>
<text x="558" y="176" fill="#111827" font-size="12.5" font-weight="600">Large Language Models</text>
<text x="558" y="201" fill="#3B6EA5" font-size="10" font-weight="700" letter-spacing="0.5">CONCEPT</text>
<rect x="544" y="246" width="196" height="60" rx="8" fill="#ffffff" stroke="#E5E7EB" stroke-width="1.2"/>
<rect x="544" y="246" width="5" height="60" rx="2.5" fill="#2E8B57"/>
<text x="558" y="266" fill="#111827" font-size="12.5" font-weight="600">Retrieval-Augmented</text>
<text x="558" y="281" fill="#111827" font-size="12.5" font-weight="600">Generation (RAG)</text>
<text x="558" y="297" fill="#2E8B57" font-size="10" font-weight="700" letter-spacing="0.5">PATTERN</text>
<rect x="544" y="342" width="196" height="60" rx="8" fill="#ffffff" stroke="#E5E7EB" stroke-width="1.2"/>
<rect x="544" y="342" width="5" height="60" rx="2.5" fill="#8E44AD"/>
<text x="558" y="362" fill="#111827" font-size="12.5" font-weight="600">Model Context Protocol</text>
<text x="558" y="377" fill="#111827" font-size="12.5" font-weight="600">(MCP)</text>
<text x="558" y="393" fill="#8E44AD" font-size="10" font-weight="700" letter-spacing="0.5">TOOL</text>
<rect x="544" y="438" width="196" height="60" rx="8" fill="#ffffff" stroke="#E5E7EB" stroke-width="1.2"/>
<rect x="544" y="438" width="5" height="60" rx="2.5" fill="#E08214"/>
<text x="558" y="458" fill="#111827" font-size="12.5" font-weight="600">Prompt vs RAG vs Agents</text>
<text x="558" y="473" fill="#111827" font-size="12.5" font-weight="600">vs Fine-tune vs Train</text>
<text x="558" y="489" fill="#E08214" font-size="10" font-weight="700" letter-spacing="0.5">DECISION</text>
<rect x="794" y="150" width="196" height="60" rx="8" fill="#ffffff" stroke="#E5E7EB" stroke-width="1.2"/>
<rect x="794" y="150" width="5" height="60" rx="2.5" fill="#3B6EA5"/>
<text x="808" y="176" fill="#111827" font-size="12.5" font-weight="600">Context in AI models</text>
<text x="808" y="201" fill="#3B6EA5" font-size="10" font-weight="700" letter-spacing="0.5">CONCEPT</text>
<rect x="794" y="246" width="196" height="60" rx="8" fill="#ffffff" stroke="#E5E7EB" stroke-width="1.2"/>
<rect x="794" y="246" width="5" height="60" rx="2.5" fill="#3B6EA5"/>
<text x="808" y="266" fill="#111827" font-size="12.5" font-weight="600">Organizational knowledge</text>
<text x="808" y="281" fill="#111827" font-size="12.5" font-weight="600">systems</text>
<text x="808" y="297" fill="#3B6EA5" font-size="10" font-weight="700" letter-spacing="0.5">CONCEPT</text>
<rect x="1044" y="150" width="196" height="60" rx="8" fill="#ffffff" stroke="#E5E7EB" stroke-width="1.2"/>
<rect x="1044" y="150" width="5" height="60" rx="2.5" fill="#2E8B57"/>
<text x="1058" y="170" fill="#111827" font-size="12.5" font-weight="600">Conversational</text>
<text x="1058" y="185" fill="#111827" font-size="12.5" font-weight="600">interfaces</text>
<text x="1058" y="201" fill="#2E8B57" font-size="10" font-weight="700" letter-spacing="0.5">PATTERN</text>
<rect x="1044" y="246" width="196" height="60" rx="8" fill="#ffffff" stroke="#E5E7EB" stroke-width="1.2"/>
<rect x="1044" y="246" width="5" height="60" rx="2.5" fill="#3B6EA5"/>
<text x="1058" y="272" fill="#111827" font-size="12.5" font-weight="600">Intent as an abstraction</text>
<text x="1058" y="297" fill="#3B6EA5" font-size="10" font-weight="700" letter-spacing="0.5">CONCEPT</text>
<rect x="1294" y="150" width="196" height="60" rx="8" fill="#ffffff" stroke="#E5E7EB" stroke-width="1.2"/>
<rect x="1294" y="150" width="5" height="60" rx="2.5" fill="#E08214"/>
<text x="1308" y="170" fill="#111827" font-size="12.5" font-weight="600">Personal vs production</text>
<text x="1308" y="185" fill="#111827" font-size="12.5" font-weight="600">agents</text>
<text x="1308" y="201" fill="#E08214" font-size="10" font-weight="700" letter-spacing="0.5">DECISION</text>
<rect x="1294" y="246" width="196" height="60" rx="8" fill="#ffffff" stroke="#E5E7EB" stroke-width="1.2"/>
<rect x="1294" y="246" width="5" height="60" rx="2.5" fill="#2E8B57"/>
<text x="1308" y="266" fill="#111827" font-size="12.5" font-weight="600">Anatomy of an agent:</text>
<text x="1308" y="281" fill="#111827" font-size="12.5" font-weight="600">memory, tools,…</text>
<text x="1308" y="297" fill="#2E8B57" font-size="10" font-weight="700" letter-spacing="0.5">PATTERN</text>
<rect x="1294" y="342" width="196" height="60" rx="8" fill="#ffffff" stroke="#E5E7EB" stroke-width="1.2"/>
<rect x="1294" y="342" width="5" height="60" rx="2.5" fill="#3B6EA5"/>
<text x="1308" y="362" fill="#111827" font-size="12.5" font-weight="600">Workflow vs Agent: a</text>
<text x="1308" y="377" fill="#111827" font-size="12.5" font-weight="600">spectrum of determinism</text>
<text x="1308" y="393" fill="#3B6EA5" font-size="10" font-weight="700" letter-spacing="0.5">CONCEPT</text>
<rect x="1544" y="150" width="196" height="60" rx="8" fill="#ffffff" stroke="#E5E7EB" stroke-width="1.2"/>
<rect x="1544" y="150" width="5" height="60" rx="2.5" fill="#2E8B57"/>
<text x="1558" y="170" fill="#111827" font-size="12.5" font-weight="600">Operation agents propose</text>
<text x="1558" y="185" fill="#111827" font-size="12.5" font-weight="600">via GitOps</text>
<text x="1558" y="201" fill="#2E8B57" font-size="10" font-weight="700" letter-spacing="0.5">PATTERN</text>
<rect x="1794" y="150" width="196" height="60" rx="8" fill="#ffffff" stroke="#E5E7EB" stroke-width="1.2"/>
<rect x="1794" y="150" width="5" height="60" rx="2.5" fill="#C0392B"/>
<text x="1808" y="176" fill="#111827" font-size="12.5" font-weight="600">Memory poisoning</text>
<text x="1808" y="201" fill="#C0392B" font-size="10" font-weight="700" letter-spacing="0.5">THREAT</text>
<rect x="1794" y="246" width="196" height="60" rx="8" fill="#ffffff" stroke="#E5E7EB" stroke-width="1.2"/>
<rect x="1794" y="246" width="5" height="60" rx="2.5" fill="#2E8B57"/>
<text x="1808" y="266" fill="#111827" font-size="12.5" font-weight="600">Human-in-the-loop</text>
<text x="1808" y="281" fill="#111827" font-size="12.5" font-weight="600">control</text>
<text x="1808" y="297" fill="#2E8B57" font-size="10" font-weight="700" letter-spacing="0.5">PATTERN</text>
<rect x="1794" y="342" width="196" height="60" rx="8" fill="#ffffff" stroke="#E5E7EB" stroke-width="1.2"/>
<rect x="1794" y="342" width="5" height="60" rx="2.5" fill="#C0392B"/>
<text x="1808" y="368" fill="#111827" font-size="12.5" font-weight="600">Prompt injection</text>
<text x="1808" y="393" fill="#C0392B" font-size="10" font-weight="700" letter-spacing="0.5">THREAT</text>
<rect x="1794" y="438" width="196" height="60" rx="8" fill="#ffffff" stroke="#E5E7EB" stroke-width="1.2"/>
<rect x="1794" y="438" width="5" height="60" rx="2.5" fill="#2E8B57"/>
<text x="1808" y="464" fill="#111827" font-size="12.5" font-weight="600">Model guardrails</text>
<text x="1808" y="489" fill="#2E8B57" font-size="10" font-weight="700" letter-spacing="0.5">PATTERN</text>
<rect x="1794" y="534" width="196" height="60" rx="8" fill="#ffffff" stroke="#E5E7EB" stroke-width="1.2"/>
<rect x="1794" y="534" width="5" height="60" rx="2.5" fill="#2E8B57"/>
<text x="1808" y="560" fill="#111827" font-size="12.5" font-weight="600">Identity propagation</text>
<text x="1808" y="585" fill="#2E8B57" font-size="10" font-weight="700" letter-spacing="0.5">PATTERN</text>
<rect x="1794" y="630" width="196" height="60" rx="8" fill="#ffffff" stroke="#E5E7EB" stroke-width="1.2"/>
<rect x="1794" y="630" width="5" height="60" rx="2.5" fill="#2E8B57"/>
<text x="1808" y="650" fill="#111827" font-size="12.5" font-weight="600">Compliance as a platform</text>
<text x="1808" y="665" fill="#111827" font-size="12.5" font-weight="600">capability</text>
<text x="1808" y="681" fill="#2E8B57" font-size="10" font-weight="700" letter-spacing="0.5">PATTERN</text>
<rect x="2044" y="150" width="196" height="60" rx="8" fill="#ffffff" stroke="#E5E7EB" stroke-width="1.2"/>
<rect x="2044" y="150" width="5" height="60" rx="2.5" fill="#3B6EA5"/>
<text x="2058" y="176" fill="#111827" font-size="12.5" font-weight="600">Context-as-a-module</text>
<text x="2058" y="201" fill="#3B6EA5" font-size="10" font-weight="700" letter-spacing="0.5">CONCEPT</text>
<rect x="2044" y="246" width="196" height="60" rx="8" fill="#ffffff" stroke="#E5E7EB" stroke-width="1.2"/>
<rect x="2044" y="246" width="5" height="60" rx="2.5" fill="#3B6EA5"/>
<text x="2058" y="266" fill="#111827" font-size="12.5" font-weight="600">Downloadable brains</text>
<text x="2058" y="281" fill="#111827" font-size="12.5" font-weight="600">(curated context as a…</text>
<text x="2058" y="297" fill="#3B6EA5" font-size="10" font-weight="700" letter-spacing="0.5">CONCEPT</text>
<rect x="2044" y="342" width="196" height="60" rx="8" fill="#ffffff" stroke="#E5E7EB" stroke-width="1.2"/>
<rect x="2044" y="342" width="5" height="60" rx="2.5" fill="#3B6EA5"/>
<text x="2058" y="368" fill="#111827" font-size="12.5" font-weight="600">Agentic harness</text>
<text x="2058" y="393" fill="#3B6EA5" font-size="10" font-weight="700" letter-spacing="0.5">CONCEPT</text>
<rect x="2044" y="438" width="196" height="60" rx="8" fill="#ffffff" stroke="#E5E7EB" stroke-width="1.2"/>
<rect x="2044" y="438" width="5" height="60" rx="2.5" fill="#2E8B57"/>
<text x="2058" y="464" fill="#111827" font-size="12.5" font-weight="600">Living memory graph</text>
<text x="2058" y="489" fill="#2E8B57" font-size="10" font-weight="700" letter-spacing="0.5">PATTERN</text>
<rect x="2044" y="534" width="196" height="60" rx="8" fill="#ffffff" stroke="#E5E7EB" stroke-width="1.2"/>
<rect x="2044" y="534" width="5" height="60" rx="2.5" fill="#3B6EA5"/>
<text x="2058" y="560" fill="#111827" font-size="12.5" font-weight="600">Forward Engineering</text>
<text x="2058" y="585" fill="#3B6EA5" font-size="10" font-weight="700" letter-spacing="0.5">CONCEPT</text>
<rect x="2044" y="630" width="196" height="60" rx="8" fill="#ffffff" stroke="#E5E7EB" stroke-width="1.2"/>
<rect x="2044" y="630" width="5" height="60" rx="2.5" fill="#3B6EA5"/>
<text x="2058" y="656" fill="#111827" font-size="12.5" font-weight="600">Governance-as-a-module</text>
<text x="2058" y="681" fill="#3B6EA5" font-size="10" font-weight="700" letter-spacing="0.5">CONCEPT</text>
<rect x="2044" y="726" width="196" height="60" rx="8" fill="#ffffff" stroke="#E5E7EB" stroke-width="1.2"/>
<rect x="2044" y="726" width="5" height="60" rx="2.5" fill="#3B6EA5"/>
<text x="2058" y="746" fill="#111827" font-size="12.5" font-weight="600">The up-leveled</text>
<text x="2058" y="761" fill="#111827" font-size="12.5" font-weight="600">organization</text>
<text x="2058" y="777" fill="#3B6EA5" font-size="10" font-weight="700" letter-spacing="0.5">CONCEPT</text>
<text x="44" y="840" fill="#6B7280" font-size="11" font-weight="700">NODE TYPES</text>
<rect x="44" y="848" width="14" height="14" rx="3" fill="#3B6EA5"/>
<text x="64" y="859" fill="#374151" font-size="11">concept</text>
<rect x="162" y="848" width="14" height="14" rx="3" fill="#E08214"/>
<text x="182" y="859" fill="#374151" font-size="11">decision</text>
<rect x="280" y="848" width="14" height="14" rx="3" fill="#2E8B57"/>
<text x="300" y="859" fill="#374151" font-size="11">pattern</text>
<rect x="398" y="848" width="14" height="14" rx="3" fill="#C0392B"/>
<text x="418" y="859" fill="#374151" font-size="11">threat</text>
<rect x="516" y="848" width="14" height="14" rx="3" fill="#8E44AD"/>
<text x="536" y="859" fill="#374151" font-size="11">tool</text>
<rect x="634" y="848" width="14" height="14" rx="3" fill="#7F6A4E"/>
<text x="654" y="859" fill="#374151" font-size="11">metric</text>
<rect x="752" y="848" width="14" height="14" rx="3" fill="#1B9E9E"/>
<text x="772" y="859" fill="#374151" font-size="11">lesson</text>
<text x="44" y="882" fill="#6B7280" font-size="11" font-weight="700">RELATIONSHIPS</text>
<line x1="44" y1="896" x2="70" y2="896" stroke="#2563EB" stroke-width="2" marker-end="url(#a_depends_on)"/>
<text x="78" y="900" fill="#374151" font-size="11">depends_on</text>
<line x1="194" y1="896" x2="220" y2="896" stroke="#D97706" stroke-width="2" marker-end="url(#a_enables)"/>
<text x="228" y="900" fill="#374151" font-size="11">enables</text>
<line x1="344" y1="896" x2="370" y2="896" stroke="#0D9488" stroke-width="2" marker-end="url(#a_mitigates)"/>
<text x="378" y="900" fill="#374151" font-size="11">mitigates</text>
<line x1="494" y1="896" x2="520" y2="896" stroke="#DC2626" stroke-width="2" marker-end="url(#a_supersedes)"/>
<text x="528" y="900" fill="#374151" font-size="11">supersedes</text>
<line x1="644" y1="896" x2="670" y2="896" stroke="#9333EA" stroke-width="2" marker-end="url(#a_caused_by)"/>
<text x="678" y="900" fill="#374151" font-size="11">caused_by</text>
<line x1="794" y1="896" x2="820" y2="896" stroke="#64748B" stroke-width="2" marker-end="url(#a_introduced_in)"/>
<text x="828" y="900" fill="#374151" font-size="11">introduced_in</text>
<line x1="944" y1="896" x2="970" y2="896" stroke="#C7CDD6" stroke-width="1.3" stroke-dasharray="4 4" marker-end="url(#a_relates_to)"/>
<text x="978" y="900" fill="#374151" font-size="11">relates_to</text>
</svg>