<svg xmlns="http://www.w3.org/2000/svg" width="2220" height="620" font-family="Helvetica,Arial,sans-serif" font-size="11">
<rect width="2220" height="620" fill="#0d1117"/>
<defs><marker id="arw" markerWidth="8" markerHeight="8" refX="7" refY="3" orient="auto"><path d="M0,0 L7,3 L0,6 Z" fill="#6e7681"/></marker></defs>
<text x="30" y="40" fill="#e6edf3" font-size="20" font-weight="bold">AI-Driven Platform Engineering — Living Memory Graph</text>
<text x="30" y="62" fill="#8b949e">30 nodes · 43 edges · pulled live over MCP</text>
<text x="155.0" y="72" fill="#8b949e" text-anchor="middle">Ch 1</text>
<text x="395.0" y="72" fill="#8b949e" text-anchor="middle">Ch 2</text>
<text x="635.0" y="72" fill="#8b949e" text-anchor="middle">Ch 3</text>
<text x="875.0" y="72" fill="#8b949e" text-anchor="middle">Ch 4</text>
<text x="1115.0" y="72" fill="#8b949e" text-anchor="middle">Ch 5</text>
<text x="1355.0" y="72" fill="#8b949e" text-anchor="middle">Ch 6</text>
<text x="1595.0" y="72" fill="#8b949e" text-anchor="middle">Ch 7</text>
<text x="1835.0" y="72" fill="#8b949e" text-anchor="middle">Ch 8</text>
<text x="2075.0" y="72" fill="#8b949e" text-anchor="middle">Ch 9</text>
<path d="M250,180.0 C155.0,180.0 155.0,250.0 60,250.0" fill="none" stroke="#30363d" stroke-width="1" marker-end="url(#arw)"/>
<path d="M250,250.0 C155.0,250.0 155.0,110.0 60,110.0" fill="none" stroke="#30363d" stroke-width="1" marker-end="url(#arw)"/>
<path d="M490,110.0 C275.0,110.0 275.0,180.0 60,180.0" fill="none" stroke="#30363d" stroke-width="1" marker-end="url(#arw)"/>
<path d="M490,110.0 C275.0,110.0 275.0,250.0 60,250.0" fill="none" stroke="#30363d" stroke-width="1" marker-end="url(#arw)"/>
<path d="M490,180.0 C395.0,180.0 395.0,110.0 300,110.0" fill="none" stroke="#30363d" stroke-width="1" marker-end="url(#arw)"/>
<path d="M730,110.0 C635.0,110.0 635.0,320.0 540,320.0" fill="none" stroke="#30363d" stroke-width="1" marker-end="url(#arw)"/>
<path d="M730,110.0 C635.0,110.0 635.0,250.0 540,250.0" fill="none" stroke="#30363d" stroke-width="1" marker-end="url(#arw)"/>
<path d="M730,320.0 C755.0,320.0 755.0,180.0 780,180.0" fill="none" stroke="#30363d" stroke-width="1" marker-end="url(#arw)"/>
<path d="M730,180.0 C635.0,180.0 635.0,320.0 540,320.0" fill="none" stroke="#30363d" stroke-width="1" marker-end="url(#arw)"/>
<path d="M970,110.0 C875.0,110.0 875.0,180.0 780,180.0" fill="none" stroke="#30363d" stroke-width="1" marker-end="url(#arw)"/>
<path d="M970,180.0 C1475.0,180.0 1475.0,180.0 1980,180.0" fill="none" stroke="#30363d" stroke-width="1" marker-end="url(#arw)"/>
<path d="M1210,110.0 C1115.0,110.0 1115.0,180.0 1020,180.0" fill="none" stroke="#30363d" stroke-width="1" marker-end="url(#arw)"/>
<path d="M1210,110.0 C875.0,110.0 875.0,180.0 540,180.0" fill="none" stroke="#30363d" stroke-width="1" marker-end="url(#arw)"/>
<path d="M1210,110.0 C995.0,110.0 995.0,180.0 780,180.0" fill="none" stroke="#30363d" stroke-width="1" marker-end="url(#arw)"/>
<path d="M1210,180.0 C1595.0,180.0 1595.0,320.0 1980,320.0" fill="none" stroke="#30363d" stroke-width="1" marker-end="url(#arw)"/>
<path d="M2170,110.0 C1715.0,110.0 1715.0,110.0 1260,110.0" fill="none" stroke="#30363d" stroke-width="1" marker-end="url(#arw)"/>
<path d="M2170,110.0 C1355.0,110.0 1355.0,180.0 540,180.0" fill="none" stroke="#30363d" stroke-width="1" marker-end="url(#arw)"/>
<path d="M2170,110.0 C1955.0,110.0 1955.0,390.0 1740,390.0" fill="none" stroke="#30363d" stroke-width="1" marker-end="url(#arw)"/>
<path d="M1450,250.0 C1715.0,250.0 1715.0,110.0 1980,110.0" fill="none" stroke="#30363d" stroke-width="1" marker-end="url(#arw)"/>
<path d="M1450,110.0 C1715.0,110.0 1715.0,110.0 1980,110.0" fill="none" stroke="#30363d" stroke-width="1" marker-end="url(#arw)"/>
<path d="M1450,180.0 C1475.0,180.0 1475.0,110.0 1500,110.0" fill="none" stroke="#30363d" stroke-width="1" marker-end="url(#arw)"/>
<path d="M1690,110.0 C1715.0,110.0 1715.0,180.0 1740,180.0" fill="none" stroke="#30363d" stroke-width="1" marker-end="url(#arw)"/>
<path d="M1690,110.0 C1835.0,110.0 1835.0,110.0 1980,110.0" fill="none" stroke="#30363d" stroke-width="1" marker-end="url(#arw)"/>
<path d="M1930,390.0 C1835.0,390.0 1835.0,180.0 1740,180.0" fill="none" stroke="#30363d" stroke-width="1" marker-end="url(#arw)"/>
<path d="M1930,250.0 C1835.0,250.0 1835.0,390.0 1740,390.0" fill="none" stroke="#30363d" stroke-width="1" marker-end="url(#arw)"/>
<path d="M1930,390.0 C1835.0,390.0 1835.0,460.0 1740,460.0" fill="none" stroke="#30363d" stroke-width="1" marker-end="url(#arw)"/>
<path d="M1930,250.0 C1835.0,250.0 1835.0,460.0 1740,460.0" fill="none" stroke="#30363d" stroke-width="1" marker-end="url(#arw)"/>
<path d="M1930,110.0 C1835.0,110.0 1835.0,250.0 1740,250.0" fill="none" stroke="#30363d" stroke-width="1" marker-end="url(#arw)"/>
<path d="M1930,460.0 C1715.0,460.0 1715.0,110.0 1500,110.0" fill="none" stroke="#30363d" stroke-width="1" marker-end="url(#arw)"/>
<path d="M1930,320.0 C1235.0,320.0 1235.0,320.0 540,320.0" fill="none" stroke="#30363d" stroke-width="1" marker-end="url(#arw)"/>
<path d="M1930,320.0 C1955.0,320.0 1955.0,250.0 1980,250.0" fill="none" stroke="#30363d" stroke-width="1" marker-end="url(#arw)"/>
<path d="M2170,320.0 C1595.0,320.0 1595.0,180.0 1020,180.0" fill="none" stroke="#30363d" stroke-width="1" marker-end="url(#arw)"/>
<path d="M2170,320.0 C2075.0,320.0 2075.0,530.0 1980,530.0" fill="none" stroke="#30363d" stroke-width="1" marker-end="url(#arw)"/>
<path d="M2170,390.0 C1955.0,390.0 1955.0,110.0 1740,110.0" fill="none" stroke="#30363d" stroke-width="1" marker-end="url(#arw)"/>
<path d="M2170,390.0 C1955.0,390.0 1955.0,390.0 1740,390.0" fill="none" stroke="#30363d" stroke-width="1" marker-end="url(#arw)"/>
<path d="M2170,180.0 C1475.0,180.0 1475.0,180.0 780,180.0" fill="none" stroke="#30363d" stroke-width="1" marker-end="url(#arw)"/>
<path d="M2170,180.0 C2075.0,180.0 2075.0,460.0 1980,460.0" fill="none" stroke="#30363d" stroke-width="1" marker-end="url(#arw)"/>
<path d="M2170,460.0 C1355.0,460.0 1355.0,180.0 540,180.0" fill="none" stroke="#30363d" stroke-width="1" marker-end="url(#arw)"/>
<path d="M2170,460.0 C2075.0,460.0 2075.0,180.0 1980,180.0" fill="none" stroke="#30363d" stroke-width="1" marker-end="url(#arw)"/>
<path d="M2170,250.0 C2075.0,250.0 2075.0,180.0 1980,180.0" fill="none" stroke="#30363d" stroke-width="1" marker-end="url(#arw)"/>
<path d="M2170,250.0 C1955.0,250.0 1955.0,320.0 1740,320.0" fill="none" stroke="#30363d" stroke-width="1" marker-end="url(#arw)"/>
<path d="M2170,530.0 C2075.0,530.0 2075.0,320.0 1980,320.0" fill="none" stroke="#30363d" stroke-width="1" marker-end="url(#arw)"/>
<path d="M2170,530.0 C2075.0,530.0 2075.0,390.0 1980,390.0" fill="none" stroke="#30363d" stroke-width="1" marker-end="url(#arw)"/>
<rect x="60" y="230" width="190" height="40" rx="6" fill="#4C78A8" opacity="0.92"/>
<text x="68" y="247" fill="#fff" font-weight="bold">Platform as a Product</text>
<text x="68" y="262" fill="#e6edf3" opacity="0.85">concept</text>
<rect x="60" y="160" width="190" height="40" rx="6" fill="#4C78A8" opacity="0.92"/>
<text x="68" y="177" fill="#fff" font-weight="bold">Developer cognitive load</text>
<text x="68" y="192" fill="#e6edf3" opacity="0.85">concept</text>
<rect x="60" y="90" width="190" height="40" rx="6" fill="#9D755D" opacity="0.92"/>
<text x="68" y="107" fill="#fff" font-weight="bold">DORA metrics / SLO / SLI</text>
<text x="68" y="122" fill="#e6edf3" opacity="0.85">metric</text>
<rect x="300" y="90" width="190" height="40" rx="6" fill="#4C78A8" opacity="0.92"/>
<text x="308" y="107" fill="#fff" font-weight="bold">AIOps</text>
<text x="308" y="122" fill="#e6edf3" opacity="0.85">concept</text>
<rect x="300" y="160" width="190" height="40" rx="6" fill="#F58518" opacity="0.92"/>
<text x="308" y="177" fill="#fff" font-weight="bold">Build vs. buy AI platfor…</text>
<text x="308" y="192" fill="#e6edf3" opacity="0.85">decision</text>
<rect x="540" y="90" width="190" height="40" rx="6" fill="#4C78A8" opacity="0.92"/>
<text x="548" y="107" fill="#fff" font-weight="bold">Large Language Models</text>
<text x="548" y="122" fill="#e6edf3" opacity="0.85">concept</text>
<rect x="540" y="300" width="190" height="40" rx="6" fill="#54A24B" opacity="0.92"/>
<text x="548" y="317" fill="#fff" font-weight="bold">Retrieval-Augmented Gene…</text>
<text x="548" y="332" fill="#e6edf3" opacity="0.85">pattern</text>
<rect x="540" y="160" width="190" height="40" rx="6" fill="#B279A2" opacity="0.92"/>
<text x="548" y="177" fill="#fff" font-weight="bold">Model Context Protocol (…</text>
<text x="548" y="192" fill="#e6edf3" opacity="0.85">tool</text>
<rect x="540" y="230" width="190" height="40" rx="6" fill="#F58518" opacity="0.92"/>
<text x="548" y="247" fill="#fff" font-weight="bold">Prompt vs RAG vs Agents …</text>
<text x="548" y="262" fill="#e6edf3" opacity="0.85">decision</text>
<rect x="780" y="90" width="190" height="40" rx="6" fill="#4C78A8" opacity="0.92"/>
<text x="788" y="107" fill="#fff" font-weight="bold">Context in AI models</text>
<text x="788" y="122" fill="#e6edf3" opacity="0.85">concept</text>
<rect x="780" y="160" width="190" height="40" rx="6" fill="#4C78A8" opacity="0.92"/>
<text x="788" y="177" fill="#fff" font-weight="bold">Organizational knowledge…</text>
<text x="788" y="192" fill="#e6edf3" opacity="0.85">concept</text>
<rect x="1020" y="90" width="190" height="40" rx="6" fill="#54A24B" opacity="0.92"/>
<text x="1028" y="107" fill="#fff" font-weight="bold">Conversational interfaces</text>
<text x="1028" y="122" fill="#e6edf3" opacity="0.85">pattern</text>
<rect x="1020" y="160" width="190" height="40" rx="6" fill="#4C78A8" opacity="0.92"/>
<text x="1028" y="177" fill="#fff" font-weight="bold">Intent as an abstraction</text>
<text x="1028" y="192" fill="#e6edf3" opacity="0.85">concept</text>
<rect x="1980" y="90" width="190" height="40" rx="6" fill="#4C78A8" opacity="0.92"/>
<text x="1988" y="107" fill="#fff" font-weight="bold">Agentic harness</text>
<text x="1988" y="122" fill="#e6edf3" opacity="0.85">concept</text>
<rect x="1260" y="230" width="190" height="40" rx="6" fill="#4C78A8" opacity="0.92"/>
<text x="1268" y="247" fill="#fff" font-weight="bold">Workflow vs Agent: a spe…</text>
<text x="1268" y="262" fill="#e6edf3" opacity="0.85">concept</text>
<rect x="1260" y="90" width="190" height="40" rx="6" fill="#54A24B" opacity="0.92"/>
<text x="1268" y="107" fill="#fff" font-weight="bold">Anatomy of an agent: mem…</text>
<text x="1268" y="122" fill="#e6edf3" opacity="0.85">pattern</text>
<rect x="1260" y="160" width="190" height="40" rx="6" fill="#F58518" opacity="0.92"/>
<text x="1268" y="177" fill="#fff" font-weight="bold">Personal vs production a…</text>
<text x="1268" y="192" fill="#e6edf3" opacity="0.85">decision</text>
<rect x="1500" y="90" width="190" height="40" rx="6" fill="#54A24B" opacity="0.92"/>
<text x="1508" y="107" fill="#fff" font-weight="bold">Operation agents propose…</text>
<text x="1508" y="122" fill="#e6edf3" opacity="0.85">pattern</text>
<rect x="1740" y="160" width="190" height="40" rx="6" fill="#54A24B" opacity="0.92"/>
<text x="1748" y="177" fill="#fff" font-weight="bold">Human-in-the-loop control</text>
<text x="1748" y="192" fill="#e6edf3" opacity="0.85">pattern</text>
<rect x="1740" y="370" width="190" height="40" rx="6" fill="#54A24B" opacity="0.92"/>
<text x="1748" y="387" fill="#fff" font-weight="bold">Model guardrails</text>
<text x="1748" y="402" fill="#e6edf3" opacity="0.85">pattern</text>
<rect x="1740" y="230" width="190" height="40" rx="6" fill="#54A24B" opacity="0.92"/>
<text x="1748" y="247" fill="#fff" font-weight="bold">Identity propagation</text>
<text x="1748" y="262" fill="#e6edf3" opacity="0.85">pattern</text>
<rect x="1740" y="440" width="190" height="40" rx="6" fill="#E45756" opacity="0.92"/>
<text x="1748" y="457" fill="#fff" font-weight="bold">Prompt injection</text>
<text x="1748" y="472" fill="#e6edf3" opacity="0.85">threat</text>
<rect x="1740" y="300" width="190" height="40" rx="6" fill="#E45756" opacity="0.92"/>
<text x="1748" y="317" fill="#fff" font-weight="bold">Memory poisoning</text>
<text x="1748" y="332" fill="#e6edf3" opacity="0.85">threat</text>
<rect x="1740" y="90" width="190" height="40" rx="6" fill="#54A24B" opacity="0.92"/>
<text x="1748" y="107" fill="#fff" font-weight="bold">Compliance as a platform…</text>
<text x="1748" y="122" fill="#e6edf3" opacity="0.85">pattern</text>
<rect x="1980" y="300" width="190" height="40" rx="6" fill="#4C78A8" opacity="0.92"/>
<text x="1988" y="317" fill="#fff" font-weight="bold">Forward Engineering</text>
<text x="1988" y="332" fill="#e6edf3" opacity="0.85">concept</text>
<rect x="1980" y="370" width="190" height="40" rx="6" fill="#4C78A8" opacity="0.92"/>
<text x="1988" y="387" fill="#fff" font-weight="bold">Governance-as-a-module</text>
<text x="1988" y="402" fill="#e6edf3" opacity="0.85">concept</text>
<rect x="1980" y="160" width="190" height="40" rx="6" fill="#4C78A8" opacity="0.92"/>
<text x="1988" y="177" fill="#fff" font-weight="bold">Context-as-a-module</text>
<text x="1988" y="192" fill="#e6edf3" opacity="0.85">concept</text>
<rect x="1980" y="440" width="190" height="40" rx="6" fill="#54A24B" opacity="0.92"/>
<text x="1988" y="457" fill="#fff" font-weight="bold">Living memory graph</text>
<text x="1988" y="472" fill="#e6edf3" opacity="0.85">pattern</text>
<rect x="1980" y="230" width="190" height="40" rx="6" fill="#4C78A8" opacity="0.92"/>
<text x="1988" y="247" fill="#fff" font-weight="bold">Downloadable brains (cur…</text>
<text x="1988" y="262" fill="#e6edf3" opacity="0.85">concept</text>
<rect x="1980" y="510" width="190" height="40" rx="6" fill="#4C78A8" opacity="0.92"/>
<text x="1988" y="527" fill="#fff" font-weight="bold">The up-leveled organizat…</text>
<text x="1988" y="542" fill="#e6edf3" opacity="0.85">concept</text>
<rect x="30" y="598" width="12" height="12" rx="2" fill="#4C78A8"/>
<text x="48" y="609" fill="#8b949e">concept</text>
<rect x="140" y="598" width="12" height="12" rx="2" fill="#F58518"/>
<text x="158" y="609" fill="#8b949e">decision</text>
<rect x="250" y="598" width="12" height="12" rx="2" fill="#54A24B"/>
<text x="268" y="609" fill="#8b949e">pattern</text>
<rect x="360" y="598" width="12" height="12" rx="2" fill="#E45756"/>
<text x="378" y="609" fill="#8b949e">threat</text>
<rect x="470" y="598" width="12" height="12" rx="2" fill="#B279A2"/>
<text x="488" y="609" fill="#8b949e">tool</text>
<rect x="580" y="598" width="12" height="12" rx="2" fill="#9D755D"/>
<text x="598" y="609" fill="#8b949e">metric</text>
<rect x="690" y="598" width="12" height="12" rx="2" fill="#72B7B2"/>
<text x="708" y="609" fill="#8b949e">lesson</text>
</svg>